<?xml version="1.0" standalone="no"?>
<!DOCTYPE svg PUBLIC "-//W3C//DTD SVG 20010904//EN"
 "http://www.w3.org/TR/2001/REC-SVG-20010904/DTD/svg10.dtd">
<svg version="1.0" xmlns="http://www.w3.org/2000/svg"
 width="512.000000pt" height="512.000000pt" viewBox="0 0 512.000000 512.000000"
 preserveAspectRatio="xMidYMid meet">

<g transform="translate(0.000000,512.000000) scale(0.100000,-0.100000)"
fill="#ffffff" stroke="none">
<path d="M1640 5099 c-96 -43 -141 -113 -148 -231 l-5 -78 -61 0 c-221 0 -392
-140 -425 -350 -7 -42 -11 -390 -11 -974 l0 -909 -103 100 c-57 55 -119 109
-138 119 -48 26 -170 26 -219 0 -56 -30 -316 -296 -339 -347 -27 -57 -27 -150
-2 -204 13 -26 152 -172 410 -430 l391 -390 0 -495 c0 -272 5 -524 10 -559 19
-137 107 -252 238 -314 l67 -32 1325 -3 c729 -1 1335 0 1347 3 13 3 30 19 39
36 13 26 13 36 3 60 -6 16 -17 33 -23 37 -6 4 -609 9 -1341 12 l-1330 5 -46
27 c-53 31 -92 73 -117 127 -15 32 -17 88 -20 484 -2 246 0 447 5 447 4 0 149
-141 320 -312 l313 -313 238 -3 239 -3 53 -54 c64 -65 104 -73 139 -29 34 44
27 69 -39 138 l-60 63 0 233 0 234 -312 313 -313 313 1296 0 c1296 0 1296 0
1323 21 33 26 36 79 6 109 -20 20 -33 20 -1372 20 -847 0 -1359 -4 -1368 -10
-12 -7 -64 39 -242 218 l-228 227 0 702 0 703 1830 0 1829 0 3 -270 c3 -262 4
-270 25 -291 27 -27 75 -29 103 -4 20 18 20 30 20 617 0 562 -1 602 -19 652
-57 164 -195 262 -382 273 l-86 6 -6 77 c-6 88 -29 142 -80 187 -113 99 -284
75 -362 -51 -26 -43 -30 -61 -34 -133 l-3 -83 -173 0 -172 0 -5 78 c-7 118
-52 188 -148 231 -84 38 -188 19 -255 -46 -54 -53 -75 -104 -75 -190 l0 -73
-175 0 -175 0 0 61 c0 86 -17 133 -67 189 -95 106 -236 108 -338 5 -58 -57
-75 -102 -75 -194 l0 -61 -175 0 -175 0 0 73 c0 86 -21 137 -75 190 -67 65
-171 84 -255 46z m151 -158 l29 -29 0 -200 0 -199 -26 -27 c-38 -37 -86 -36
-125 4 l-30 30 3 201 3 201 28 24 c39 33 81 31 118 -5z m830 0 l29 -29 0 -195
0 -195 -26 -31 c-20 -25 -34 -31 -64 -31 -30 0 -44 6 -64 31 l-26 31 0 195 0
195 29 29 c20 20 39 29 61 29 22 0 41 -9 61 -29z m826 5 l28 -24 3 -201 3
-201 -30 -30 c-39 -40 -87 -41 -125 -4 l-26 27 0 199 0 200 29 29 c37 36 79
38 118 5z m819 9 c40 -27 45 -62 42 -259 l-3 -188 -28 -24 c-38 -32 -90 -32
-122 1 -25 24 -25 25 -25 227 1 144 4 208 13 219 30 39 87 50 123 24z m-2774
-392 c5 -87 23 -134 71 -183 70 -72 178 -90 273 -46 88 41 134 122 134 236 l0
70 174 0 173 0 5 -84 c4 -72 9 -92 34 -133 18 -29 49 -59 78 -78 44 -27 58
-30 126 -30 68 0 82 3 126 30 29 19 60 49 78 78 25 41 30 61 34 133 l5 84 172
0 173 0 3 -83 c4 -72 8 -90 34 -133 81 -129 262 -153 368 -48 51 52 70 98 75
187 l5 77 173 0 174 0 0 -75 c0 -117 41 -188 135 -231 91 -43 194 -28 263 39
52 50 73 100 79 189 l6 78 54 0 c121 0 211 -50 257 -141 26 -53 26 -54 26
-296 l0 -243 -1831 0 -1831 0 4 243 c3 240 4 242 30 293 50 95 133 142 254
143 l61 1 5 -77z m-713 -2018 l106 -105 -180 -180 -180 -180 -102 103 c-96 96
-103 107 -103 143 0 38 7 47 143 182 184 182 171 181 316 37z m804 -803 l587
-587 -63 -63 -62 -62 -590 590 -590 590 60 60 c33 33 62 60 65 60 3 0 269
-264 593 -588z m-236 -224 c321 -321 583 -588 583 -593 0 -6 -27 -37 -60 -70
l-60 -60 -590 590 -590 590 62 62 c34 35 65 63 68 63 3 0 267 -262 587 -582z
m853 -653 l0 -105 -100 0 c-55 0 -100 3 -100 7 0 7 191 203 197 203 2 0 3 -47
3 -105z"/>
<path d="M1599 3442 c-33 -27 -30 -78 5 -109 l27 -23 1349 2 c1310 3 1349 4
1369 22 27 25 28 79 1 106 -20 20 -33 20 -1374 20 -1301 0 -1355 -1 -1377 -18z"/>
<path d="M4824 3049 c-18 -20 -19 -61 -24 -1373 l-5 -1351 -28 -47 c-15 -26
-42 -59 -60 -72 -63 -48 -105 -56 -297 -56 -164 0 -179 -2 -204 -21 -37 -29
-36 -80 1 -109 27 -21 35 -22 233 -18 l206 3 76 38 c88 43 152 107 195 195
l28 57 3 1367 c2 1359 2 1368 -18 1388 -27 27 -81 26 -106 -1z"/>
<path d="M1625 2961 c-49 -20 -64 -83 -30 -121 18 -20 28 -20 1377 -20 1345 0
1358 0 1378 20 27 27 26 81 -1 106 -21 18 -59 19 -1363 21 -737 1 -1350 -2
-1361 -6z"/>
<path d="M1609 2457 c-31 -24 -42 -56 -28 -88 6 -17 20 -34 30 -39 11 -6 522
-10 1366 -10 1344 0 1349 0 1371 20 32 30 30 82 -4 109 l-27 21 -1346 0
c-1042 -1 -1350 -3 -1362 -13z"/>
<path d="M2545 1473 c-36 -9 -55 -34 -55 -73 0 -75 -70 -70 942 -70 864 0 906
1 921 18 24 27 22 85 -4 108 -20 18 -51 19 -903 20 -484 1 -890 0 -901 -3z"/>
</g>
</svg>
